<?xml version="1.0" encoding="UTF-8"?>
<!DOCTYPE svg PUBLIC "-//W3C//DTD SVG 1.1//EN" "http://www.w3.org/Graphics/SVG/1.1/DTD/svg11.dtd">
<svg xmlns="http://www.w3.org/2000/svg" version="1.1" width="2487px" height="691px" style="shape-rendering:geometricPrecision; text-rendering:geometricPrecision; image-rendering:optimizeQuality; fill-rule:evenodd; clip-rule:evenodd" xmlns:xlink="http://www.w3.org/1999/xlink">
<g><path style="opacity:0.994" fill="#009fe3" d="M 488.5,76.5 C 488.5,165.5 488.5,254.5 488.5,343.5C 434.909,313.723 381.576,314.223 328.5,345C 320.547,350.618 312.88,356.618 305.5,363C 299.996,369.671 293.996,375.837 287.5,381.5C 285.638,369.578 284.472,357.578 284,345.5C 283.333,288.833 283.333,232.167 284,175.5C 284.626,167.545 288.792,162.712 296.5,161C 356.379,160.603 409.046,141.27 454.5,103C 463.163,95.3367 471.497,87.3367 479.5,79C 482.312,77.4511 485.312,76.6178 488.5,76.5 Z"/></g>
<g><path style="opacity:0.995" fill="#0f70b7" d="M 488.5,76.5 C 493.796,77.3146 498.463,79.4813 502.5,83C 550.839,134.357 610.505,160.357 681.5,161C 687.74,162.908 691.573,167.075 693,173.5C 693.395,208.835 693.895,244.168 694.5,279.5C 694.236,304.187 693.403,328.854 692,353.5C 682.878,463.322 630.045,544.155 533.5,596C 519.287,604.116 504.287,609.95 488.5,613.5C 488.5,607.833 488.5,602.167 488.5,596.5C 492.792,596.965 496.792,596.132 500.5,594C 511.369,582.8 521.869,571.3 532,559.5C 536.001,554.666 538.501,549.166 539.5,543C 538.666,534.001 533.666,529.168 524.5,528.5C 519.654,529.173 515.821,531.506 513,535.5C 506.24,546.351 498.074,556.017 488.5,564.5C 488.5,556.167 488.5,547.833 488.5,539.5C 488.5,538.833 488.5,538.167 488.5,537.5C 500.484,524.529 507.984,509.196 511,491.5C 517.215,459.019 509.715,430.352 488.5,405.5C 488.5,405.167 488.5,404.833 488.5,404.5C 488.5,396.167 488.5,387.833 488.5,379.5C 509.882,397.232 523.382,419.898 529,447.5C 530.854,459.424 531.854,471.424 532,483.5C 536.719,492.962 543.885,495.462 553.5,491C 556.106,489.062 557.939,486.562 559,483.5C 561.762,423.357 538.262,376.69 488.5,343.5C 488.5,254.5 488.5,165.5 488.5,76.5 Z"/></g>
<g><path style="opacity:0.981" fill="#0f6fb7" d="M 1196.5,171.5 C 1216.86,171.131 1237.19,171.631 1257.5,173C 1296.35,176.353 1315.35,197.52 1314.5,236.5C 1296.17,236.5 1277.83,236.5 1259.5,236.5C 1259.21,225.379 1253.55,219.213 1242.5,218C 1229.16,216.029 1215.83,216.029 1202.5,218C 1190.13,220.043 1185.63,227.21 1189,239.5C 1191.46,245.487 1195.96,248.654 1202.5,249C 1222.1,251.367 1241.77,253.034 1261.5,254C 1275.62,254.864 1288.96,258.53 1301.5,265C 1311.36,273.563 1316.86,284.396 1318,297.5C 1318.67,309.5 1318.67,321.5 1318,333.5C 1314.98,356.52 1302.15,370.687 1279.5,376C 1243.09,383.456 1206.76,383.122 1170.5,375C 1150.95,368.781 1139.12,355.614 1135,335.5C 1133.77,328.555 1133.27,321.555 1133.5,314.5C 1151.83,314.5 1170.17,314.5 1188.5,314.5C 1187.62,323.916 1191.62,330.083 1200.5,333C 1217.84,336.311 1235.17,336.311 1252.5,333C 1259.49,331.032 1262.83,326.366 1262.5,319C 1262.65,311.157 1258.98,306.157 1251.5,304C 1230.59,301.131 1209.59,299.131 1188.5,298C 1173.49,296.75 1159.49,292.417 1146.5,285C 1138.66,277.15 1134.16,267.65 1133,256.5C 1130.76,241.435 1131.09,226.435 1134,211.5C 1137.4,196.433 1146.23,185.933 1160.5,180C 1172.28,175.682 1184.28,172.848 1196.5,171.5 Z"/></g>
<g><path style="opacity:0.984" fill="#0f6fb7" d="M 1418.5,171.5 C 1433.84,171.333 1449.17,171.5 1464.5,172C 1516.44,176.616 1542.94,205.116 1544,257.5C 1545.25,277.625 1544.25,297.625 1541,317.5C 1535.35,347.807 1517.85,367.307 1488.5,376C 1459.97,382.195 1431.3,382.861 1402.5,378C 1364.55,370.373 1343.71,347.207 1340,308.5C 1338,286.833 1338,265.167 1340,243.5C 1342.04,226.02 1348.38,210.354 1359,196.5C 1368.19,187.319 1379.02,180.819 1391.5,177C 1400.51,174.503 1409.51,172.67 1418.5,171.5 Z M 1427.5,219.5 C 1439.63,218.893 1451.63,219.726 1463.5,222C 1476.56,226.921 1483.73,236.421 1485,250.5C 1488.17,270.606 1487.5,290.606 1483,310.5C 1479.93,319.909 1473.76,326.409 1464.5,330C 1450.26,334.159 1435.92,334.492 1421.5,331C 1410.65,328.501 1403.48,322.001 1400,311.5C 1394.42,289.251 1394.09,266.918 1399,244.5C 1403.1,229.899 1412.6,221.566 1427.5,219.5 Z"/></g>
<g><path style="opacity:0.981" fill="#0f6fb7" d="M 780.5,173.5 C 808.835,173.333 837.169,173.5 865.5,174C 878.329,204.483 891.162,234.983 904,265.5C 916.838,234.983 929.671,204.483 942.5,174C 970.498,173.5 998.498,173.333 1026.5,173.5C 1026.5,241.833 1026.5,310.167 1026.5,378.5C 1008.17,378.5 989.833,378.5 971.5,378.5C 971.667,329.166 971.5,279.832 971,230.5C 958.538,260.419 946.371,290.419 934.5,320.5C 914.164,320.667 893.831,320.5 873.5,320C 861.204,290.572 849.037,261.072 837,231.5C 836.5,280.499 836.333,329.499 836.5,378.5C 817.833,378.5 799.167,378.5 780.5,378.5C 780.5,310.167 780.5,241.833 780.5,173.5 Z"/></g>
<g><path style="opacity:0.988" fill="#0f6fb7" d="M 1053.5,173.5 C 1072.17,173.5 1090.83,173.5 1109.5,173.5C 1109.5,241.833 1109.5,310.167 1109.5,378.5C 1090.83,378.5 1072.17,378.5 1053.5,378.5C 1053.5,310.167 1053.5,241.833 1053.5,173.5 Z"/></g>
<g><path style="opacity:0.986" fill="#0f6fb7" d="M 1568.5,173.5 C 1611.52,173.056 1654.52,173.556 1697.5,175C 1736.26,180.618 1754.59,203.118 1752.5,242.5C 1753.04,255.642 1750.21,267.976 1744,279.5C 1739.26,285.898 1733.09,290.398 1725.5,293C 1738.25,295.422 1746.09,302.922 1749,315.5C 1750.44,336.455 1750.94,357.455 1750.5,378.5C 1731.83,378.5 1713.17,378.5 1694.5,378.5C 1694.67,364.163 1694.5,349.829 1694,335.5C 1693.08,324.582 1687.25,318.082 1676.5,316C 1659.17,315.5 1641.84,315.333 1624.5,315.5C 1624.5,336.5 1624.5,357.5 1624.5,378.5C 1605.83,378.5 1587.17,378.5 1568.5,378.5C 1568.5,310.167 1568.5,241.833 1568.5,173.5 Z M 1624.5,220.5 C 1642.84,220.333 1661.17,220.5 1679.5,221C 1685.57,221.445 1690.07,224.278 1693,229.5C 1696.73,241.454 1696.06,253.121 1691,264.5C 1686.14,268.093 1680.64,269.927 1674.5,270C 1657.84,270.5 1641.17,270.667 1624.5,270.5C 1624.5,253.833 1624.5,237.167 1624.5,220.5 Z"/></g>
<g><path style="opacity:0.989" fill="#0f6fb7" d="M 1776.5,173.5 C 1804.84,173.333 1833.17,173.5 1861.5,174C 1883.13,220.758 1904.63,267.592 1926,314.5C 1926.5,267.501 1926.67,220.501 1926.5,173.5C 1944.83,173.5 1963.17,173.5 1981.5,173.5C 1981.5,241.833 1981.5,310.167 1981.5,378.5C 1952.83,378.5 1924.17,378.5 1895.5,378.5C 1874.83,331.327 1853.66,284.327 1832,237.5C 1831.5,284.499 1831.33,331.499 1831.5,378.5C 1813.17,378.5 1794.83,378.5 1776.5,378.5C 1776.5,310.167 1776.5,241.833 1776.5,173.5 Z"/></g>
<g><path style="opacity:0.98" fill="#0f6fb7" d="M 2007.5,173.5 C 2026.5,173.5 2045.5,173.5 2064.5,173.5C 2064.02,219.88 2064.52,266.214 2066,312.5C 2068.58,322.075 2074.74,327.909 2084.5,330C 2101.39,333.366 2118.05,332.366 2134.5,327C 2141.61,321.285 2145.44,313.785 2146,304.5C 2146.5,260.835 2146.67,217.168 2146.5,173.5C 2165.17,173.5 2183.83,173.5 2202.5,173.5C 2202.67,221.501 2202.5,269.501 2202,317.5C 2197.46,354.372 2176.63,374.872 2139.5,379C 2114.79,382.407 2090.12,382.073 2065.5,378C 2028.61,371.773 2009.44,349.94 2008,312.5C 2007.5,266.168 2007.33,219.835 2007.5,173.5 Z"/></g>
<g><path style="opacity:0.998" fill="#fdfefe" d="M 488.5,343.5 C 488.5,355.167 488.5,366.833 488.5,378.5C 445.357,345.692 399.357,341.192 350.5,365C 343.993,369.086 337.66,373.42 331.5,378C 321.833,387.667 312.167,397.333 302.5,407C 299.607,408.149 296.607,408.649 293.5,408.5C 291.028,399.61 289.028,390.61 287.5,381.5C 293.996,375.837 299.996,369.671 305.5,363C 312.88,356.618 320.547,350.618 328.5,345C 381.576,314.223 434.909,313.723 488.5,343.5 Z"/></g>
<g><path style="opacity:0.999" fill="#b2b1b2" d="M 488.5,343.5 C 538.262,376.69 561.762,423.357 559,483.5C 557.939,486.562 556.106,489.062 553.5,491C 543.885,495.462 536.719,492.962 532,483.5C 531.854,471.424 530.854,459.424 529,447.5C 523.382,419.898 509.882,397.232 488.5,379.5C 488.5,379.167 488.5,378.833 488.5,378.5C 488.5,366.833 488.5,355.167 488.5,343.5 Z"/></g>
<g><path style="opacity:0.997" fill="#07a0e3" d="M 488.5,378.5 C 488.5,378.833 488.5,379.167 488.5,379.5C 488.5,387.833 488.5,396.167 488.5,404.5C 478.735,393.27 467.068,384.437 453.5,378C 440.84,376.995 435.34,382.828 437,395.5C 437.561,397.725 438.561,399.725 440,401.5C 478.921,424.26 491.921,457.26 479,500.5C 475.332,508.51 470.665,515.844 465,522.5C 450.273,537.896 434.939,552.563 419,566.5C 416.826,570.546 415.993,574.879 416.5,579.5C 407.965,574.959 400.298,569.292 393.5,562.5C 413.667,546.511 432.833,529.178 451,510.5C 465.429,493.435 469.429,474.102 463,452.5C 446.98,419.578 421.48,408.744 386.5,420C 381.999,422.416 377.666,425.083 373.5,428C 364.803,436.363 356.469,445.03 348.5,454C 339.278,461.429 329.945,468.596 320.5,475.5C 316.992,469.818 313.992,463.818 311.5,457.5C 319.587,453.947 326.921,449.113 333.5,443C 343.5,431.667 354.167,421 365.5,411C 369.841,407.828 374.508,405.161 379.5,403C 387.227,400.486 394.894,397.819 402.5,395C 410.492,386.959 410.492,378.959 402.5,371C 395.441,369.115 388.441,369.448 381.5,372C 367.695,376.568 355.029,383.235 343.5,392C 329.855,406.15 315.855,419.65 301.5,432.5C 298.256,424.769 295.59,416.769 293.5,408.5C 296.607,408.649 299.607,408.149 302.5,407C 312.167,397.333 321.833,387.667 331.5,378C 337.66,373.42 343.993,369.086 350.5,365C 399.357,341.192 445.357,345.692 488.5,378.5 Z"/></g>
<g><path style="opacity:0.996" fill="#fdfefe" d="M 311.5,457.5 C 307.371,449.562 304.037,441.228 301.5,432.5C 315.855,419.65 329.855,406.15 343.5,392C 355.029,383.235 367.695,376.568 381.5,372C 388.441,369.448 395.441,369.115 402.5,371C 410.492,378.959 410.492,386.959 402.5,395C 394.894,397.819 387.227,400.486 379.5,403C 374.508,405.161 369.841,407.828 365.5,411C 354.167,421 343.5,431.667 333.5,443C 326.921,449.113 319.587,453.947 311.5,457.5 Z"/></g>
<g><path style="opacity:0.998" fill="#fdfefe" d="M 488.5,404.5 C 488.5,404.833 488.5,405.167 488.5,405.5C 488.5,449.5 488.5,493.5 488.5,537.5C 488.5,538.167 488.5,538.833 488.5,539.5C 472.524,556.001 455.857,571.835 438.5,587C 436.593,588.122 434.593,588.955 432.5,589.5C 426.794,586.653 421.461,583.32 416.5,579.5C 415.993,574.879 416.826,570.546 419,566.5C 434.939,552.563 450.273,537.896 465,522.5C 470.665,515.844 475.332,508.51 479,500.5C 491.921,457.26 478.921,424.26 440,401.5C 438.561,399.725 437.561,397.725 437,395.5C 435.34,382.828 440.84,376.995 453.5,378C 467.068,384.437 478.735,393.27 488.5,404.5 Z"/></g>
<g><path style="opacity:0.999" fill="#b3b2b2" d="M 488.5,405.5 C 509.715,430.352 517.215,459.019 511,491.5C 507.984,509.196 500.484,524.529 488.5,537.5C 488.5,493.5 488.5,449.5 488.5,405.5 Z"/></g>
<g><path style="opacity:0.996" fill="#fdfefe" d="M 393.5,562.5 C 386.91,558.247 380.91,553.247 375.5,547.5C 376.02,543.464 378.02,540.297 381.5,538C 401.189,523.65 419.022,507.15 435,488.5C 443.716,472.078 440.882,457.912 426.5,446C 414.621,439.684 402.954,440.017 391.5,447C 374.39,466.625 355.057,483.459 333.5,497.5C 328.378,490.693 324.044,483.36 320.5,475.5C 329.945,468.596 339.278,461.429 348.5,454C 356.469,445.03 364.803,436.363 373.5,428C 377.666,425.083 381.999,422.416 386.5,420C 421.48,408.744 446.98,419.578 463,452.5C 469.429,474.102 465.429,493.435 451,510.5C 432.833,529.178 413.667,546.511 393.5,562.5 Z"/></g>
<g><path style="opacity:0.959" fill="#000000" d="M 818.5,418.5 C 831.934,417.956 845.267,418.789 858.5,421C 867.827,422.995 873.993,428.495 877,437.5C 878.16,442.434 878.66,447.434 878.5,452.5C 870.167,452.5 861.833,452.5 853.5,452.5C 853.927,444.759 850.261,440.593 842.5,440C 835.833,439.333 829.167,439.333 822.5,440C 813.397,441.354 810.231,446.521 813,455.5C 813.465,456.931 814.299,458.097 815.5,459C 818.101,459.92 820.768,460.587 823.5,461C 836.9,461.754 850.233,463.087 863.5,465C 874.583,467.323 880.416,474.156 881,485.5C 882.535,495.931 881.202,505.931 877,515.5C 870.825,522.567 862.991,526.401 853.5,527C 840.833,527.667 828.167,527.667 815.5,527C 795.469,524.8 786.136,513.634 787.5,493.5C 795.833,493.5 804.167,493.5 812.5,493.5C 811.812,500.313 814.812,504.48 821.5,506C 832.063,508.403 842.396,507.736 852.5,504C 854.888,501.694 855.888,498.861 855.5,495.5C 856.173,491.719 854.839,488.886 851.5,487C 835.845,485.047 820.178,483.047 804.5,481C 793.147,477.962 787.314,470.462 787,458.5C 785.539,448.265 787.206,438.599 792,429.5C 799.656,422.787 808.489,419.12 818.5,418.5 Z"/></g>
<g><path style="opacity:0.963" fill="#000000" d="M 1370.5,418.5 C 1382.94,417.99 1395.27,418.824 1407.5,421C 1420.45,424.279 1428.28,432.446 1431,445.5C 1431.58,449.832 1432.08,454.165 1432.5,458.5C 1423.83,458.5 1415.17,458.5 1406.5,458.5C 1406.69,451.369 1403.69,446.202 1397.5,443C 1387.05,439.621 1376.72,439.955 1366.5,444C 1361.79,447.237 1358.96,451.737 1358,457.5C 1355.54,470.355 1356.21,483.021 1360,495.5C 1362.32,499.817 1365.82,502.65 1370.5,504C 1379.94,506.243 1389.27,505.91 1398.5,503C 1404.46,499.591 1407.12,494.424 1406.5,487.5C 1415.17,487.5 1423.83,487.5 1432.5,487.5C 1433.67,507.701 1424.67,520.534 1405.5,526C 1390.83,527.98 1376.16,527.98 1361.5,526C 1346.44,522.611 1336.94,513.445 1333,498.5C 1329.15,479.319 1329.82,460.319 1335,441.5C 1339.5,430.335 1347.67,423.501 1359.5,421C 1363.31,420.205 1366.98,419.371 1370.5,418.5 Z"/></g>
<g><path style="opacity:0.962" fill="#000000" d="M 2137.5,418.5 C 2150.27,417.978 2162.93,418.811 2175.5,421C 2192.51,426.537 2200.84,438.37 2200.5,456.5C 2191.83,456.5 2183.17,456.5 2174.5,456.5C 2174.51,447.699 2170.18,442.532 2161.5,441C 2152,439.855 2142.66,440.522 2133.5,443C 2127.94,446.614 2124.77,451.781 2124,458.5C 2122.08,468.171 2122.08,477.837 2124,487.5C 2124.86,496.691 2129.7,502.524 2138.5,505C 2148.59,507.21 2158.59,506.877 2168.5,504C 2173.86,501.125 2176.52,496.625 2176.5,490.5C 2167.83,490.5 2159.17,490.5 2150.5,490.5C 2150.5,483.833 2150.5,477.167 2150.5,470.5C 2167.17,470.5 2183.83,470.5 2200.5,470.5C 2207.8,510.855 2191.13,529.855 2150.5,527.5C 2135.97,528.964 2122.64,525.798 2110.5,518C 2103.52,510.54 2099.35,501.707 2098,491.5C 2095.89,477.446 2096.23,463.446 2099,449.5C 2101.83,436.007 2109.66,426.84 2122.5,422C 2127.6,420.64 2132.6,419.474 2137.5,418.5 Z"/></g>
<g><path style="opacity:0.967" fill="#000000" d="M 1013.5,419.5 C 1022.83,419.5 1032.17,419.5 1041.5,419.5C 1041.5,425.833 1041.5,432.167 1041.5,438.5C 1035.49,438.334 1029.49,438.501 1023.5,439C 1021.51,439.574 1020.01,440.741 1019,442.5C 1018.5,445.146 1018.34,447.813 1018.5,450.5C 1025.83,450.5 1033.17,450.5 1040.5,450.5C 1040.5,456.833 1040.5,463.167 1040.5,469.5C 1033.17,469.5 1025.83,469.5 1018.5,469.5C 1018.5,488.5 1018.5,507.5 1018.5,526.5C 1010.5,526.5 1002.5,526.5 994.5,526.5C 994.5,507.5 994.5,488.5 994.5,469.5C 989.833,469.5 985.167,469.5 980.5,469.5C 980.5,463.167 980.5,456.833 980.5,450.5C 985.167,450.5 989.833,450.5 994.5,450.5C 993.782,442.501 994.949,434.834 998,427.5C 1002.3,423.021 1007.47,420.354 1013.5,419.5 Z"/></g>
<g><path style="opacity:0.971" fill="#000000" d="M 1901.5,419.5 C 1909.83,419.5 1918.17,419.5 1926.5,419.5C 1926.5,447.833 1926.5,476.167 1926.5,504.5C 1944.83,504.5 1963.17,504.5 1981.5,504.5C 1981.5,511.833 1981.5,519.167 1981.5,526.5C 1954.83,526.5 1928.17,526.5 1901.5,526.5C 1901.5,490.833 1901.5,455.167 1901.5,419.5 Z"/></g>
<g><path style="opacity:0.965" fill="#000000" d="M 1990.5,419.5 C 2014.86,419.082 2039.2,419.582 2063.5,421C 2071.94,422.284 2077.77,426.784 2081,434.5C 2085.14,446.378 2084.14,457.711 2078,468.5C 2076.23,469.304 2074.73,470.471 2073.5,472C 2083.52,476.461 2087.85,484.294 2086.5,495.5C 2088.29,513.53 2080.29,523.697 2062.5,526C 2038.5,526.5 2014.5,526.667 1990.5,526.5C 1990.5,490.833 1990.5,455.167 1990.5,419.5 Z M 2016.5,440.5 C 2028.54,440.162 2040.54,440.662 2052.5,442C 2056.24,444.183 2057.91,447.516 2057.5,452C 2057.87,457.271 2055.54,460.604 2050.5,462C 2039.17,462.5 2027.84,462.667 2016.5,462.5C 2016.5,455.167 2016.5,447.833 2016.5,440.5 Z M 2016.5,482.5 C 2029.56,482.078 2042.56,482.578 2055.5,484C 2059.54,486.075 2061.2,489.408 2060.5,494C 2061.18,499.66 2058.84,503.326 2053.5,505C 2041.17,505.5 2028.84,505.667 2016.5,505.5C 2016.5,497.833 2016.5,490.167 2016.5,482.5 Z"/></g>
<g><path style="opacity:0.967" fill="#000000" d="M 1146.5,432.5 C 1154.17,432.5 1161.83,432.5 1169.5,432.5C 1169.5,438.5 1169.5,444.5 1169.5,450.5C 1180.83,450.5 1192.17,450.5 1203.5,450.5C 1203.5,456.833 1203.5,463.167 1203.5,469.5C 1192.17,469.5 1180.83,469.5 1169.5,469.5C 1169.06,481.243 1169.56,492.91 1171,504.5C 1180.61,508.718 1184.44,505.718 1182.5,495.5C 1190.17,495.5 1197.83,495.5 1205.5,495.5C 1209.18,518.157 1199.51,528.823 1176.5,527.5C 1166.14,528.674 1157.31,525.674 1150,518.5C 1148.72,516.283 1147.72,513.949 1147,511.5C 1145.59,497.551 1145.09,483.551 1145.5,469.5C 1140.83,469.5 1136.17,469.5 1131.5,469.5C 1131.5,463.167 1131.5,456.833 1131.5,450.5C 1136.5,450.5 1141.5,450.5 1146.5,450.5C 1146.5,444.5 1146.5,438.5 1146.5,432.5 Z"/></g>
<g><path style="opacity:0.969" fill="#000000" d="M 1634.5,432.5 C 1642.17,432.5 1649.83,432.5 1657.5,432.5C 1657.5,438.5 1657.5,444.5 1657.5,450.5C 1668.83,450.5 1680.17,450.5 1691.5,450.5C 1691.5,456.833 1691.5,463.167 1691.5,469.5C 1680.17,469.5 1668.83,469.5 1657.5,469.5C 1657.33,479.839 1657.5,490.172 1658,500.5C 1659.41,506.061 1662.91,507.895 1668.5,506C 1671.15,503.219 1671.82,500.053 1670.5,496.5C 1674.33,496.167 1678.17,495.833 1682,495.5C 1686.26,495.539 1690.26,496.206 1694,497.5C 1696.22,519.113 1686.39,529.113 1664.5,527.5C 1654.14,528.674 1645.31,525.674 1638,518.5C 1635.66,514.479 1634.33,510.146 1634,505.5C 1633.5,493.505 1633.33,481.505 1633.5,469.5C 1628.83,469.5 1624.17,469.5 1619.5,469.5C 1619.5,463.167 1619.5,456.833 1619.5,450.5C 1624.5,450.5 1629.5,450.5 1634.5,450.5C 1634.5,444.5 1634.5,438.5 1634.5,432.5 Z"/></g>
<g><path style="opacity:0.994" fill="#09a0e3" d="M 375.5,547.5 C 370.167,542.833 365.167,537.833 360.5,532.5C 363.643,531.793 366.643,530.627 369.5,529C 384.807,516.084 399.64,502.584 414,488.5C 417.482,485.023 420.148,481.023 422,476.5C 424.133,465.734 419.799,460.067 409,459.5C 405.541,459.267 402.374,460.101 399.5,462C 385.655,477.522 370.321,491.189 353.5,503C 349.859,506.126 346.859,509.626 344.5,513.5C 340.339,508.514 336.673,503.181 333.5,497.5C 355.057,483.459 374.39,466.625 391.5,447C 402.954,440.017 414.621,439.684 426.5,446C 440.882,457.912 443.716,472.078 435,488.5C 419.022,507.15 401.189,523.65 381.5,538C 378.02,540.297 376.02,543.464 375.5,547.5 Z"/></g>
<g><path style="opacity:0.962" fill="#000000" d="M 918.5,449.5 C 928.172,449.334 937.839,449.5 947.5,450C 963.132,451.966 971.632,460.799 973,476.5C 973.5,493.163 973.667,509.83 973.5,526.5C 965.833,526.5 958.167,526.5 950.5,526.5C 950.66,524.801 950.494,523.134 950,521.5C 946.845,524.667 943.012,526.501 938.5,527C 907.173,532.816 891.506,519.982 891.5,488.5C 891.597,480.989 892.763,473.656 895,466.5C 899.922,456.791 907.755,451.124 918.5,449.5 Z M 924.5,469.5 C 944.582,466.082 952.749,474.416 949,494.5C 948.687,499.489 946.521,503.323 942.5,506C 924.787,512.476 915.787,506.476 915.5,488C 915.867,482.957 917.034,478.124 919,473.5C 920.812,472.023 922.645,470.69 924.5,469.5 Z"/></g>
<g><path style="opacity:0.958" fill="#000000" d="M 1072.5,449.5 C 1081.84,449.334 1091.17,449.5 1100.5,450C 1112.72,451.853 1120.56,458.687 1124,470.5C 1125.88,478.725 1126.71,487.058 1126.5,495.5C 1107.5,495.5 1088.5,495.5 1069.5,495.5C 1069.41,503.85 1073.41,508.684 1081.5,510C 1088.31,511.146 1094.81,510.312 1101,507.5C 1102.13,505.655 1102.63,503.655 1102.5,501.5C 1110.53,501.169 1118.53,501.502 1126.5,502.5C 1125.97,515.083 1119.63,522.916 1107.5,526C 1095.89,527.579 1084.22,527.912 1072.5,527C 1058.44,524.608 1049.94,516.441 1047,502.5C 1045.01,491.767 1045.34,481.1 1048,470.5C 1052.08,458.581 1060.24,451.581 1072.5,449.5 Z M 1082.5,466.5 C 1088.53,465.965 1094.2,467.132 1099.5,470C 1101.23,472.637 1102.57,475.47 1103.5,478.5C 1092.17,479.833 1080.83,479.833 1069.5,478.5C 1071.37,471.624 1075.7,467.624 1082.5,466.5 Z"/></g>
<g><path style="opacity:0.958" fill="#000000" d="M 1468.5,449.5 C 1478.17,449.334 1487.84,449.5 1497.5,450C 1510.22,452.385 1518.05,459.885 1521,472.5C 1522.26,480.113 1522.76,487.78 1522.5,495.5C 1503.49,495.167 1484.49,495.5 1465.5,496.5C 1466.3,504.469 1470.64,508.969 1478.5,510C 1483.9,510.772 1489.24,510.439 1494.5,509C 1497.79,507.59 1499.46,505.09 1499.5,501.5C 1507.17,501.5 1514.83,501.5 1522.5,501.5C 1522.85,514.321 1516.85,522.488 1504.5,526C 1492.88,527.554 1481.22,527.887 1469.5,527C 1454,524.833 1445.17,516 1443,500.5C 1442.14,490.781 1442.47,481.115 1444,471.5C 1447.64,459.024 1455.8,451.691 1468.5,449.5 Z M 1478.5,466.5 C 1484.03,466.206 1489.36,467.039 1494.5,469C 1497.65,471.805 1499.32,475.305 1499.5,479.5C 1488.5,479.5 1477.5,479.5 1466.5,479.5C 1467.1,471.904 1471.1,467.57 1478.5,466.5 Z"/></g>
<g><path style="opacity:0.975" fill="#000000" d="M 1558.5,449.5 C 1570.22,449.113 1581.89,449.613 1593.5,451C 1603.88,454.048 1610.05,460.881 1612,471.5C 1612.5,489.83 1612.67,508.164 1612.5,526.5C 1604.5,526.5 1596.5,526.5 1588.5,526.5C 1588.67,509.83 1588.5,493.163 1588,476.5C 1585.04,470.606 1580.21,468.273 1573.5,469.5C 1566.79,468.273 1561.96,470.606 1559,476.5C 1557.59,493.124 1557.09,509.791 1557.5,526.5C 1549.83,526.5 1542.17,526.5 1534.5,526.5C 1534.05,506.446 1534.55,486.446 1536,466.5C 1540.37,456.577 1547.87,450.91 1558.5,449.5 Z"/></g>
<g><path style="opacity:0.959" fill="#000000" d="M 1728.5,449.5 C 1737.84,449.334 1747.17,449.5 1756.5,450C 1772.76,452.986 1781.26,462.819 1782,479.5C 1782.5,484.823 1782.67,490.156 1782.5,495.5C 1763.5,495.5 1744.5,495.5 1725.5,495.5C 1725.7,503.527 1729.7,508.36 1737.5,510C 1743.24,510.789 1748.9,510.456 1754.5,509C 1757.47,507.859 1759.14,505.692 1759.5,502.5C 1767.14,501.503 1774.8,501.169 1782.5,501.5C 1782.05,516.456 1774.38,524.956 1759.5,527C 1749.17,527.667 1738.83,527.667 1728.5,527C 1714,524.5 1705.5,516 1703,501.5C 1702.33,492.833 1702.33,484.167 1703,475.5C 1705.68,460.988 1714.18,452.321 1728.5,449.5 Z M 1738.5,466.5 C 1744.03,466.206 1749.36,467.039 1754.5,469C 1757.6,471.806 1759.27,475.306 1759.5,479.5C 1748.16,479.667 1736.83,479.5 1725.5,479C 1727.12,471.879 1731.45,467.712 1738.5,466.5 Z"/></g>
<g><path style="opacity:0.964" fill="#000000" d="M 1816.5,449.5 C 1825.84,449.334 1835.17,449.5 1844.5,450C 1853.61,451.11 1859.77,455.944 1863,464.5C 1864.27,469.754 1864.77,475.087 1864.5,480.5C 1856.83,480.5 1849.17,480.5 1841.5,480.5C 1842.2,476.197 1840.87,472.697 1837.5,470C 1833.17,469.333 1828.83,469.333 1824.5,470C 1820.01,471.455 1817.84,474.621 1818,479.5C 1817.5,495.163 1817.33,510.83 1817.5,526.5C 1809.5,526.5 1801.5,526.5 1793.5,526.5C 1793.33,510.163 1793.5,493.83 1794,477.5C 1794.11,461.918 1801.61,452.584 1816.5,449.5 Z"/></g>
<g><path style="opacity:0.958" fill="#000000" d="M 1207.5,451.5 C 1216.57,450.172 1225.74,450.172 1235,451.5C 1240.95,469.352 1247.28,487.019 1254,504.5C 1261.19,486.765 1267.69,468.765 1273.5,450.5C 1282.51,450.334 1291.51,450.5 1300.5,451C 1290.28,476.995 1280.45,503.161 1271,529.5C 1262.75,554.79 1245.58,563.79 1219.5,556.5C 1219.5,549.833 1219.5,543.167 1219.5,536.5C 1226.59,536.884 1233.59,536.384 1240.5,535C 1243.07,532.933 1245.07,530.433 1246.5,527.5C 1243.17,526.833 1239.83,526.167 1236.5,525.5C 1227.2,500.576 1217.53,475.909 1207.5,451.5 Z"/></g>
<g><path style="opacity:0.994" fill="#fdfefe" d="M 360.5,532.5 C 354.939,526.392 349.606,520.059 344.5,513.5C 346.859,509.626 349.859,506.126 353.5,503C 370.321,491.189 385.655,477.522 399.5,462C 402.374,460.101 405.541,459.267 409,459.5C 419.799,460.067 424.133,465.734 422,476.5C 420.148,481.023 417.482,485.023 414,488.5C 399.64,502.584 384.807,516.084 369.5,529C 366.643,530.627 363.643,531.793 360.5,532.5 Z"/></g>
<g><path style="opacity:1" fill="#b2b1b2" d="M 488.5,596.5 C 488.827,586.319 488.494,576.319 487.5,566.5C 487.833,565.833 488.167,565.167 488.5,564.5C 498.074,556.017 506.24,546.351 513,535.5C 515.821,531.506 519.654,529.173 524.5,528.5C 533.666,529.168 538.666,534.001 539.5,543C 538.501,549.166 536.001,554.666 532,559.5C 521.869,571.3 511.369,582.8 500.5,594C 496.792,596.132 492.792,596.965 488.5,596.5 Z"/></g>
<g><path style="opacity:0.983" fill="#049fe3" d="M 488.5,539.5 C 488.5,547.833 488.5,556.167 488.5,564.5C 488.167,565.167 487.833,565.833 487.5,566.5C 485.233,569.271 482.733,571.938 480,574.5C 475.46,584.716 478.293,592.049 488.5,596.5C 488.5,602.167 488.5,607.833 488.5,613.5C 481.874,612.864 475.541,611.031 469.5,608C 456.548,602.857 444.215,596.691 432.5,589.5C 434.593,588.955 436.593,588.122 438.5,587C 455.857,571.835 472.524,556.001 488.5,539.5 Z"/></g>
<g><path style="opacity:1" fill="#fdfefe" d="M 487.5,566.5 C 488.494,576.319 488.827,586.319 488.5,596.5C 478.293,592.049 475.46,584.716 480,574.5C 482.733,571.938 485.233,569.271 487.5,566.5 Z"/></g>
</svg>
